<svg width="840" height="325" viewBox="0 0 840 325" fill="none" xmlns="http://www.w3.org/2000/svg">
<rect x="40.5" y="181.5" width="759" height="80" rx="9.5" stroke="#BABABA" stroke-dasharray="2 2"/>
<path d="M385.836 282.966V281.634H376.962V294H378.384V288.366H385.098V287.034H378.384V282.966H385.836ZM388.746 283.002C389.232 283.002 389.628 282.588 389.628 282.102C389.628 281.634 389.232 281.22 388.746 281.22C388.242 281.22 387.846 281.634 387.846 282.102C387.846 282.588 388.242 283.002 388.746 283.002ZM388.062 294H389.412V284.694H388.062V294ZM392.545 294H393.895V281.418H392.545V294ZM400.951 293.01C399.115 293.01 397.837 291.678 397.639 289.86H405.253C405.253 286.602 403.651 284.478 400.843 284.478C398.341 284.478 396.253 286.548 396.253 289.32C396.253 292.182 398.485 294.216 400.969 294.216C402.265 294.216 403.903 293.658 404.713 292.776L403.885 291.894C403.309 292.524 402.049 293.01 400.951 293.01ZM400.897 285.684C402.751 285.684 403.741 286.98 403.921 288.654H397.657C397.909 286.854 399.241 285.684 400.897 285.684ZM410.401 294.216C412.327 294.216 413.803 293.118 413.803 291.408C413.803 289.644 412.255 289.14 410.761 288.672C409.033 288.114 408.349 287.862 408.349 287.052C408.349 286.152 409.213 285.684 410.257 285.684C411.085 285.684 412.003 285.972 412.939 286.566L413.587 285.522C412.597 284.874 411.409 284.478 410.257 284.478C408.403 284.478 406.999 285.522 406.999 287.214C406.999 288.546 407.863 289.212 410.113 289.86C411.373 290.22 412.453 290.544 412.453 291.552C412.453 292.434 411.625 293.01 410.401 293.01C409.375 293.01 408.313 292.614 407.251 291.84L406.549 292.83C407.665 293.73 409.105 294.216 410.401 294.216ZM416.927 297.24C418.205 297.222 419.105 296.628 419.753 295.044L424.001 284.694H422.543L419.465 292.434L416.207 284.694H414.713L418.763 294.036L418.223 295.188C417.863 295.818 417.467 296.016 416.873 296.016C416.477 296.016 416.099 295.944 415.775 295.782L415.451 296.934C415.883 297.132 416.387 297.24 416.927 297.24ZM428.647 294.216C430.573 294.216 432.049 293.118 432.049 291.408C432.049 289.644 430.501 289.14 429.007 288.672C427.279 288.114 426.595 287.862 426.595 287.052C426.595 286.152 427.459 285.684 428.503 285.684C429.331 285.684 430.249 285.972 431.185 286.566L431.833 285.522C430.843 284.874 429.655 284.478 428.503 284.478C426.649 284.478 425.245 285.522 425.245 287.214C425.245 288.546 426.109 289.212 428.359 289.86C429.619 290.22 430.699 290.544 430.699 291.552C430.699 292.434 429.871 293.01 428.647 293.01C427.621 293.01 426.559 292.614 425.497 291.84L424.795 292.83C425.911 293.73 427.351 294.216 428.647 294.216ZM437.963 292.632C437.765 292.848 437.405 293.01 436.991 293.01C436.451 293.01 435.983 292.524 435.983 291.84V285.9H438.269V284.694H435.983V282.138H434.633V284.694H433.175V285.9H434.633V291.84C434.633 293.226 435.569 294.216 436.901 294.216C437.531 294.216 438.143 294 438.629 293.622L437.963 292.632ZM444.492 293.01C442.656 293.01 441.378 291.678 441.18 289.86H448.794C448.794 286.602 447.192 284.478 444.384 284.478C441.882 284.478 439.794 286.548 439.794 289.32C439.794 292.182 442.026 294.216 444.51 294.216C445.806 294.216 447.444 293.658 448.254 292.776L447.426 291.894C446.85 292.524 445.59 293.01 444.492 293.01ZM444.438 285.684C446.292 285.684 447.282 286.98 447.462 288.654H441.198C441.45 286.854 442.782 285.684 444.438 285.684ZM461.124 284.478C459.648 284.478 458.496 285.378 458.208 286.692C457.74 285.342 456.588 284.478 455.112 284.478C453.888 284.478 452.88 285.09 452.412 286.062V284.694H451.062V294H452.412V288.078C452.412 286.674 453.456 285.684 454.932 285.684C456.192 285.684 457.074 286.746 457.074 288.258V294H458.424V288.078C458.424 286.674 459.468 285.684 460.944 285.684C462.204 285.684 463.086 286.746 463.086 288.258V294H464.436V288.078C464.436 285.972 463.068 284.478 461.124 284.478Z" fill="currentColor"/>
<g filter="url(#filter0_f_1_2)">
<rect x="66" y="198" width="212" height="46" fill="url(#paint0_linear_1_2)"/>
</g>
<rect x="66" y="198" width="212" height="46" fill="white"/>
<g clip-path="url(#clip0_1_2)">
<path d="M127 212H145V230H127V212Z" fill="#F7DF1E"/>
<path d="M131.733 227.042L133.11 226.208C133.376 226.68 133.618 227.078 134.198 227.078C134.753 227.078 135.104 226.861 135.104 226.015V220.264H136.795V226.039C136.795 227.791 135.769 228.589 134.27 228.589C132.917 228.589 132.132 227.888 131.733 227.042M137.714 226.861L139.092 226.063C139.454 226.656 139.925 227.09 140.759 227.09C141.46 227.09 141.907 226.74 141.907 226.257C141.907 225.677 141.448 225.471 140.674 225.133L140.252 224.952C139.031 224.432 138.222 223.78 138.222 222.402C138.222 221.134 139.188 220.167 140.699 220.167C141.774 220.167 142.547 220.542 143.103 221.52L141.786 222.366C141.496 221.847 141.182 221.641 140.699 221.641C140.203 221.641 139.889 221.955 139.889 222.366C139.889 222.874 140.203 223.079 140.928 223.393L141.351 223.574C142.789 224.191 143.598 224.819 143.598 226.233C143.598 227.755 142.402 228.589 140.795 228.589C139.225 228.589 138.21 227.84 137.714 226.861" fill="black"/>
</g>
<path d="M154.678 216.002C155.164 216.002 155.56 215.588 155.56 215.102C155.56 214.634 155.164 214.22 154.678 214.22C154.174 214.22 153.778 214.634 153.778 215.102C153.778 215.588 154.174 216.002 154.678 216.002ZM153.994 227H155.344V217.694H153.994V227ZM162.886 217.478C161.554 217.478 160.366 218.18 159.826 219.17V217.694H158.476V227H159.826V221.078C159.826 219.764 161.122 218.684 162.706 218.684C164.074 218.684 165.028 219.728 165.028 221.258V227H166.378V221.078C166.378 218.936 164.956 217.478 162.886 217.478ZM176.235 214.418V219.44C175.533 218.216 174.345 217.478 172.851 217.478C170.403 217.478 168.567 219.494 168.567 222.338C168.567 225.2 170.403 227.216 172.851 227.216C174.345 227.216 175.533 226.478 176.235 225.254V227H177.585V214.418H176.235ZM173.103 226.01C171.285 226.01 169.989 224.48 169.989 222.338C169.989 220.196 171.285 218.684 173.103 218.684C174.939 218.684 176.235 220.196 176.235 222.338C176.235 224.48 174.939 226.01 173.103 226.01ZM184.636 226.01C182.8 226.01 181.522 224.678 181.324 222.86H188.938C188.938 219.602 187.336 217.478 184.528 217.478C182.026 217.478 179.938 219.548 179.938 222.32C179.938 225.182 182.17 227.216 184.654 227.216C185.95 227.216 187.588 226.658 188.398 225.776L187.57 224.894C186.994 225.524 185.734 226.01 184.636 226.01ZM184.582 218.684C186.436 218.684 187.426 219.98 187.606 221.654H181.342C181.594 219.854 182.926 218.684 184.582 218.684ZM198.623 227L195.041 222.248L198.479 217.694H196.895L194.249 221.204L191.585 217.694H190.001L193.457 222.248L189.857 227H191.441L194.249 223.292L197.039 227H198.623ZM201.768 227.216C202.29 227.216 202.722 226.766 202.722 226.226C202.722 225.722 202.29 225.272 201.768 225.272C201.21 225.272 200.778 225.722 200.778 226.226C200.778 226.766 201.21 227.216 201.768 227.216ZM206.83 216.002C207.316 216.002 207.712 215.588 207.712 215.102C207.712 214.634 207.316 214.22 206.83 214.22C206.326 214.22 205.93 214.634 205.93 215.102C205.93 215.588 206.326 216.002 206.83 216.002ZM205.228 230.204C206.56 230.204 207.496 229.214 207.496 227.828V217.694H206.146V227.828C206.146 228.512 205.732 228.998 205.138 228.998C204.76 228.998 204.274 228.908 203.986 228.8L203.77 229.916C204.13 230.078 204.724 230.204 205.228 230.204ZM213.423 227.216C215.349 227.216 216.825 226.118 216.825 224.408C216.825 222.644 215.277 222.14 213.783 221.672C212.055 221.114 211.371 220.862 211.371 220.052C211.371 219.152 212.235 218.684 213.279 218.684C214.107 218.684 215.025 218.972 215.961 219.566L216.609 218.522C215.619 217.874 214.431 217.478 213.279 217.478C211.425 217.478 210.021 218.522 210.021 220.214C210.021 221.546 210.885 222.212 213.135 222.86C214.395 223.22 215.475 223.544 215.475 224.552C215.475 225.434 214.647 226.01 213.423 226.01C212.397 226.01 211.335 225.614 210.273 224.84L209.571 225.83C210.687 226.73 212.127 227.216 213.423 227.216Z" fill="black"/>
<g filter="url(#filter1_f_1_2)">
<rect x="314" y="198" width="212" height="46" fill="url(#paint1_linear_1_2)"/>
</g>
<rect x="314" y="198" width="212" height="46" fill="white"/>
<path d="M383.446 227.216C385.372 227.216 386.848 226.118 386.848 224.408C386.848 222.644 385.3 222.14 383.806 221.672C382.078 221.114 381.394 220.862 381.394 220.052C381.394 219.152 382.258 218.684 383.302 218.684C384.13 218.684 385.048 218.972 385.984 219.566L386.632 218.522C385.642 217.874 384.454 217.478 383.302 217.478C381.448 217.478 380.044 218.522 380.044 220.214C380.044 221.546 380.908 222.212 383.158 222.86C384.418 223.22 385.498 223.544 385.498 224.552C385.498 225.434 384.67 226.01 383.446 226.01C382.42 226.01 381.358 225.614 380.296 224.84L379.594 225.83C380.71 226.73 382.15 227.216 383.446 227.216ZM392.762 225.632C392.564 225.848 392.204 226.01 391.79 226.01C391.25 226.01 390.782 225.524 390.782 224.84V218.9H393.068V217.694H390.782V215.138H389.432V217.694H387.974V218.9H389.432V224.84C389.432 226.226 390.368 227.216 391.7 227.216C392.33 227.216 392.942 227 393.428 226.622L392.762 225.632ZM398.697 217.478C397.797 217.478 396.681 217.712 395.349 218.378L395.889 219.476C396.735 219.044 397.671 218.63 398.607 218.63C400.623 218.63 401.127 220.07 401.127 221.33V221.672C400.173 221.366 399.111 221.15 398.103 221.15C396.105 221.15 394.449 222.392 394.449 224.246C394.449 226.082 395.889 227.216 397.851 227.216C399.075 227.216 400.461 226.64 401.127 225.542V227H402.477V221.33C402.477 219.08 401.235 217.478 398.697 217.478ZM398.085 226.028C396.771 226.028 395.763 225.344 395.763 224.192C395.763 223.076 396.933 222.284 398.319 222.284C399.327 222.284 400.281 222.428 401.127 222.662V224.084C400.767 225.398 399.309 226.028 398.085 226.028ZM408.986 225.632C408.788 225.848 408.428 226.01 408.014 226.01C407.474 226.01 407.006 225.524 407.006 224.84V218.9H409.292V217.694H407.006V215.138H405.656V217.694H404.198V218.9H405.656V224.84C405.656 226.226 406.592 227.216 407.924 227.216C408.554 227.216 409.166 227 409.652 226.622L408.986 225.632ZM417.927 217.694V223.616C417.927 224.93 416.631 226.01 415.047 226.01C413.679 226.01 412.725 224.966 412.725 223.436V217.694H411.375V223.616C411.375 225.758 412.797 227.216 414.867 227.216C416.199 227.216 417.387 226.514 417.927 225.524V227H419.277V217.694H417.927ZM425.282 227.216C427.208 227.216 428.684 226.118 428.684 224.408C428.684 222.644 427.136 222.14 425.642 221.672C423.914 221.114 423.23 220.862 423.23 220.052C423.23 219.152 424.094 218.684 425.138 218.684C425.966 218.684 426.884 218.972 427.82 219.566L428.468 218.522C427.478 217.874 426.29 217.478 425.138 217.478C423.284 217.478 421.88 218.522 421.88 220.214C421.88 221.546 422.744 222.212 424.994 222.86C426.254 223.22 427.334 223.544 427.334 224.552C427.334 225.434 426.506 226.01 425.282 226.01C424.256 226.01 423.194 225.614 422.132 224.84L421.43 225.83C422.546 226.73 423.986 227.216 425.282 227.216ZM432.366 227.216C432.888 227.216 433.32 226.766 433.32 226.226C433.32 225.722 432.888 225.272 432.366 225.272C431.808 225.272 431.376 225.722 431.376 226.226C431.376 226.766 431.808 227.216 432.366 227.216ZM438.67 227H439.948L442.45 219.566L444.916 227H446.194L449.326 217.694H447.886L445.564 225.2L443.026 217.694H441.856L439.318 225.2L436.996 217.694H435.556L438.67 227ZM454.507 217.478C453.607 217.478 452.491 217.712 451.159 218.378L451.699 219.476C452.545 219.044 453.481 218.63 454.417 218.63C456.433 218.63 456.937 220.07 456.937 221.33V221.672C455.983 221.366 454.921 221.15 453.913 221.15C451.915 221.15 450.259 222.392 450.259 224.246C450.259 226.082 451.699 227.216 453.661 227.216C454.885 227.216 456.271 226.64 456.937 225.542V227H458.287V221.33C458.287 219.08 457.045 217.478 454.507 217.478ZM453.895 226.028C452.581 226.028 451.573 225.344 451.573 224.192C451.573 223.076 452.743 222.284 454.129 222.284C455.137 222.284 456.091 222.428 456.937 222.662V224.084C456.577 225.398 455.119 226.028 453.895 226.028ZM464.077 227.216C466.003 227.216 467.479 226.118 467.479 224.408C467.479 222.644 465.931 222.14 464.437 221.672C462.709 221.114 462.025 220.862 462.025 220.052C462.025 219.152 462.889 218.684 463.933 218.684C464.761 218.684 465.679 218.972 466.615 219.566L467.263 218.522C466.273 217.874 465.085 217.478 463.933 217.478C462.079 217.478 460.675 218.522 460.675 220.214C460.675 221.546 461.539 222.212 463.789 222.86C465.049 223.22 466.129 223.544 466.129 224.552C466.129 225.434 465.301 226.01 464.077 226.01C463.051 226.01 461.989 225.614 460.927 224.84L460.225 225.83C461.341 226.73 462.781 227.216 464.077 227.216ZM479.855 217.478C478.379 217.478 477.227 218.378 476.939 219.692C476.471 218.342 475.319 217.478 473.843 217.478C472.619 217.478 471.611 218.09 471.143 219.062V217.694H469.793V227H471.143V221.078C471.143 219.674 472.187 218.684 473.663 218.684C474.923 218.684 475.805 219.746 475.805 221.258V227H477.155V221.078C477.155 219.674 478.199 218.684 479.675 218.684C480.935 218.684 481.817 219.746 481.817 221.258V227H483.167V221.078C483.167 218.972 481.799 217.478 479.855 217.478Z" fill="black"/>
<g clip-path="url(#clip1_1_2)">
<path d="M364.059 212C364.059 212.032 364.059 212.064 364.059 212.097C364.059 213.237 363.135 214.161 361.995 214.161C360.855 214.161 359.931 213.237 359.931 212.097C359.931 212.064 359.931 212.032 359.931 212H353V230H371V212H364.059Z" fill="#654FF0"/>
<path d="M357.181 221.7H358.374L359.189 226.038H359.203L360.182 221.7H361.298L362.182 226.091H362.199L363.128 221.7H364.298L362.777 228.074H361.594L360.717 223.736H360.694L359.755 228.074H358.549L357.181 221.7ZM365.643 221.7H367.523L369.391 228.074H368.16L367.754 226.655H365.612L365.298 228.074H364.1L365.643 221.7ZM366.359 223.271L365.838 225.609H367.458L366.86 223.271H366.359Z" fill="white"/>
</g>
<g filter="url(#filter2_f_1_2)">
<rect x="562" y="198" width="212" height="46" fill="url(#paint2_linear_1_2)"/>
</g>
<rect x="562" y="198" width="212" height="46" fill="white"/>
<path d="M653.976 217.478C652.644 217.478 651.456 218.18 650.916 219.17V214.418H649.566V227H650.916V221.078C650.916 219.764 652.212 218.684 653.796 218.684C655.164 218.684 656.118 219.728 656.118 221.258V227H657.468V221.078C657.468 218.936 656.046 217.478 653.976 217.478ZM664.301 226.01C662.465 226.01 661.187 224.678 660.989 222.86H668.603C668.603 219.602 667.001 217.478 664.193 217.478C661.691 217.478 659.603 219.548 659.603 222.32C659.603 225.182 661.835 227.216 664.319 227.216C665.615 227.216 667.253 226.658 668.063 225.776L667.235 224.894C666.659 225.524 665.399 226.01 664.301 226.01ZM664.247 218.684C666.101 218.684 667.091 219.98 667.271 221.654H661.007C661.259 219.854 662.591 218.684 664.247 218.684ZM670.871 227H672.221V214.418H670.871V227ZM675.353 227H676.703V214.418H675.353V227ZM683.832 227.216C686.46 227.216 688.62 225.02 688.62 222.338C688.62 219.656 686.46 217.478 683.832 217.478C681.186 217.478 679.026 219.656 679.026 222.338C679.026 225.02 681.186 227.216 683.832 227.216ZM683.832 226.01C681.96 226.01 680.43 224.354 680.43 222.338C680.43 220.322 681.96 218.684 683.832 218.684C685.686 218.684 687.216 220.322 687.216 222.338C687.216 224.354 685.686 226.01 683.832 226.01ZM692.313 227.216C692.835 227.216 693.267 226.766 693.267 226.226C693.267 225.722 692.835 225.272 692.313 225.272C691.755 225.272 691.323 225.722 691.323 226.226C691.323 226.766 691.755 227.216 692.313 227.216ZM698.131 219.512V217.694H696.781V227H698.131V221.798C698.131 219.98 699.625 218.684 701.731 218.684V217.478C700.021 217.478 698.689 218.27 698.131 219.512ZM708.652 217.478C707.158 217.478 705.97 218.216 705.268 219.44V214.418H703.918V227H705.268V225.254C705.97 226.478 707.158 227.216 708.652 227.216C711.1 227.216 712.936 225.2 712.936 222.338C712.936 219.494 711.1 217.478 708.652 217.478ZM708.4 226.01C706.564 226.01 705.268 224.48 705.268 222.338C705.268 220.196 706.564 218.684 708.4 218.684C710.218 218.684 711.514 220.196 711.514 222.338C711.514 224.48 710.218 226.01 708.4 226.01Z" fill="black"/>
<path fill-rule="evenodd" clip-rule="evenodd" d="M635.946 223.881L625.669 230L638.975 229.094L640 215.639L635.946 223.881Z" fill="url(#paint3_linear_1_2)"/>
<path fill-rule="evenodd" clip-rule="evenodd" d="M638.997 229.085L637.854 221.17L634.738 225.295L638.997 229.085Z" fill="url(#paint4_linear_1_2)"/>
<path fill-rule="evenodd" clip-rule="evenodd" d="M639.013 229.085L630.634 228.426L625.713 229.983L639.013 229.085Z" fill="url(#paint5_linear_1_2)"/>
<path fill-rule="evenodd" clip-rule="evenodd" d="M625.725 229.985L627.818 223.108L623.212 224.096L625.725 229.985Z" fill="url(#paint6_linear_1_2)"/>
<path fill-rule="evenodd" clip-rule="evenodd" d="M639.563 217.859L634.353 213.592L632.902 218.295L639.563 217.859Z" fill="url(#paint7_linear_1_2)"/>
<path fill-rule="evenodd" clip-rule="evenodd" d="M637.126 212.07L634.062 213.768L632.129 212.047L637.126 212.07Z" fill="url(#paint8_linear_1_2)"/>
<path fill-rule="evenodd" clip-rule="evenodd" d="M622 226.402L623.284 224.055L622.245 221.258L622 226.402Z" fill="url(#paint9_linear_1_2)"/>
<path fill-rule="evenodd" clip-rule="evenodd" d="M622.177 221.169L623.221 224.141L627.761 223.12L632.944 218.29L634.407 213.631L632.104 212L628.188 213.469C626.954 214.62 624.56 216.897 624.474 216.94C624.389 216.983 622.893 219.817 622.177 221.169Z" fill="white"/>
<path d="M627.792 223.091L632.944 218.29L632.946 218.282L634.737 225.317L627.792 223.091Z" fill="url(#paint10_linear_1_2)"/>
<path fill-rule="evenodd" clip-rule="evenodd" d="M625.845 215.831C628.518 213.172 631.965 211.602 633.288 212.94C634.61 214.278 633.208 217.531 630.534 220.188C627.861 222.846 624.456 224.503 623.135 223.165C621.812 221.827 623.171 218.488 625.845 215.831Z" fill="url(#paint11_linear_1_2)"/>
<path fill-rule="evenodd" clip-rule="evenodd" d="M625.725 229.982L627.802 223.083L634.699 225.305C632.205 227.65 629.432 229.633 625.725 229.982Z" fill="url(#paint12_linear_1_2)"/>
<path fill-rule="evenodd" clip-rule="evenodd" d="M632.953 218.276L634.723 225.309C636.806 223.113 638.676 220.751 639.592 217.83L632.953 218.276Z" fill="url(#paint13_linear_1_2)"/>
<path fill-rule="evenodd" clip-rule="evenodd" d="M639.574 217.866C640.282 215.722 640.446 212.645 637.104 212.074L634.363 213.593L639.574 217.866Z" fill="url(#paint14_linear_1_2)"/>
<path fill-rule="evenodd" clip-rule="evenodd" d="M622 226.372C622.098 229.911 624.645 229.964 625.729 229.995L623.224 224.127L622 226.372Z" fill="#9E1209"/>
<path fill-rule="evenodd" clip-rule="evenodd" d="M632.963 218.287C634.564 219.274 637.79 221.255 637.855 221.292C637.957 221.349 639.246 219.111 639.539 217.847L632.963 218.287Z" fill="url(#paint15_radial_1_2)"/>
<path fill-rule="evenodd" clip-rule="evenodd" d="M627.799 223.083L630.576 228.455C632.217 227.562 633.503 226.474 634.68 225.309L627.799 223.083Z" fill="url(#paint16_radial_1_2)"/>
<path fill-rule="evenodd" clip-rule="evenodd" d="M623.213 224.134L622.82 228.831C623.562 229.848 624.583 229.936 625.654 229.857C624.879 227.923 623.331 224.055 623.213 224.134Z" fill="url(#paint17_linear_1_2)"/>
<path fill-rule="evenodd" clip-rule="evenodd" d="M634.346 213.604L639.862 214.381C639.568 213.13 638.664 212.323 637.123 212.07L634.346 213.604Z" fill="url(#paint18_linear_1_2)"/>
<path d="M172 74C176.418 74 180 70.4183 180 66C180 61.5817 176.418 58 172 58C167.582 58 164 61.5817 164 66C164 70.4183 167.582 74 172 74ZM173.5 198L173.5 66L170.5 66L170.5 198L173.5 198Z" fill="#BABABA"/>
<path d="M168.08 41.332H169.61L175.928 26.626H174.398L168.08 41.332Z" fill="currentColor"/>
<path d="M420 74C424.418 74 428 70.4183 428 66C428 61.5817 424.418 58 420 58C415.582 58 412 61.5817 412 66C412 70.4183 415.582 74 420 74ZM421.5 198L421.5 66L418.5 66L418.5 198L421.5 198Z" fill="#BABABA"/>
<path d="M391.364 41.332H392.894L399.212 26.626H397.682L391.364 41.332ZM403.65 40.216C405.576 40.216 407.052 39.118 407.052 37.408C407.052 35.644 405.504 35.14 404.01 34.672C402.282 34.114 401.598 33.862 401.598 33.052C401.598 32.152 402.462 31.684 403.506 31.684C404.334 31.684 405.252 31.972 406.188 32.566L406.836 31.522C405.846 30.874 404.658 30.478 403.506 30.478C401.652 30.478 400.248 31.522 400.248 33.214C400.248 34.546 401.112 35.212 403.362 35.86C404.622 36.22 405.702 36.544 405.702 37.552C405.702 38.434 404.874 39.01 403.65 39.01C402.624 39.01 401.562 38.614 400.5 37.84L399.798 38.83C400.914 39.73 402.354 40.216 403.65 40.216ZM412.966 38.632C412.768 38.848 412.408 39.01 411.994 39.01C411.454 39.01 410.986 38.524 410.986 37.84V31.9H413.272V30.694H410.986V28.138H409.636V30.694H408.178V31.9H409.636V37.84C409.636 39.226 410.572 40.216 411.904 40.216C412.534 40.216 413.146 40 413.632 39.622L412.966 38.632ZM418.901 30.478C418.001 30.478 416.885 30.712 415.553 31.378L416.093 32.476C416.939 32.044 417.875 31.63 418.811 31.63C420.827 31.63 421.331 33.07 421.331 34.33V34.672C420.377 34.366 419.315 34.15 418.307 34.15C416.309 34.15 414.653 35.392 414.653 37.246C414.653 39.082 416.093 40.216 418.055 40.216C419.279 40.216 420.665 39.64 421.331 38.542V40H422.681V34.33C422.681 32.08 421.439 30.478 418.901 30.478ZM418.289 39.028C416.975 39.028 415.967 38.344 415.967 37.192C415.967 36.076 417.137 35.284 418.523 35.284C419.531 35.284 420.485 35.428 421.331 35.662V37.084C420.971 38.398 419.513 39.028 418.289 39.028ZM429.19 38.632C428.992 38.848 428.632 39.01 428.218 39.01C427.678 39.01 427.21 38.524 427.21 37.84V31.9H429.496V30.694H427.21V28.138H425.86V30.694H424.402V31.9H425.86V37.84C425.86 39.226 426.796 40.216 428.128 40.216C428.758 40.216 429.37 40 429.856 39.622L429.19 38.632ZM438.131 30.694V36.616C438.131 37.93 436.835 39.01 435.251 39.01C433.883 39.01 432.929 37.966 432.929 36.436V30.694H431.579V36.616C431.579 38.758 433.001 40.216 435.071 40.216C436.403 40.216 437.591 39.514 438.131 38.524V40H439.481V30.694H438.131ZM445.486 40.216C447.412 40.216 448.888 39.118 448.888 37.408C448.888 35.644 447.34 35.14 445.846 34.672C444.118 34.114 443.434 33.862 443.434 33.052C443.434 32.152 444.298 31.684 445.342 31.684C446.17 31.684 447.088 31.972 448.024 32.566L448.672 31.522C447.682 30.874 446.494 30.478 445.342 30.478C443.488 30.478 442.084 31.522 442.084 33.214C442.084 34.546 442.948 35.212 445.198 35.86C446.458 36.22 447.538 36.544 447.538 37.552C447.538 38.434 446.71 39.01 445.486 39.01C444.46 39.01 443.398 38.614 442.336 37.84L441.634 38.83C442.75 39.73 444.19 40.216 445.486 40.216Z" fill="currentColor"/>
<path d="M667 74C671.418 74 675 70.4183 675 66C675 61.5817 671.418 58 667 58C662.582 58 659 61.5817 659 66C659 70.4183 662.582 74 667 74ZM668.5 198L668.5 66L665.5 66L665.5 198L668.5 198Z" fill="#BABABA"/>
<path d="M642.391 41.332H643.921L650.239 26.626H648.709L642.391 41.332ZM656.206 30.478C654.874 30.478 653.686 31.18 653.146 32.17V27.418H651.796V40H653.146V34.078C653.146 32.764 654.442 31.684 656.026 31.684C657.394 31.684 658.348 32.728 658.348 34.258V40H659.698V34.078C659.698 31.936 658.276 30.478 656.206 30.478ZM666.531 39.01C664.695 39.01 663.417 37.678 663.219 35.86H670.833C670.833 32.602 669.231 30.478 666.423 30.478C663.921 30.478 661.833 32.548 661.833 35.32C661.833 38.182 664.065 40.216 666.549 40.216C667.845 40.216 669.483 39.658 670.293 38.776L669.465 37.894C668.889 38.524 667.629 39.01 666.531 39.01ZM666.477 31.684C668.331 31.684 669.321 32.98 669.501 34.654H663.237C663.489 32.854 664.821 31.684 666.477 31.684ZM673.101 40H674.451V27.418H673.101V40ZM677.584 40H678.934V27.418H677.584V40ZM686.062 40.216C688.69 40.216 690.85 38.02 690.85 35.338C690.85 32.656 688.69 30.478 686.062 30.478C683.416 30.478 681.256 32.656 681.256 35.338C681.256 38.02 683.416 40.216 686.062 40.216ZM686.062 39.01C684.19 39.01 682.66 37.354 682.66 35.338C682.66 33.322 684.19 31.684 686.062 31.684C687.916 31.684 689.446 33.322 689.446 35.338C689.446 37.354 687.916 39.01 686.062 39.01Z" fill="currentColor"/>
<g filter="url(#filter3_f_1_2)">
<rect x="66" y="109" width="708" height="46" fill="url(#paint19_linear_1_2)"/>
</g>
<rect x="66" y="109" width="708" height="46" fill="white"/>
<path d="M332.362 138H333.748L337.204 127.47L340.642 138H342.028L346.258 125.634H344.674L341.254 135.642L337.978 125.634H336.412L333.136 135.642L329.716 125.634H328.132L332.362 138ZM351.701 128.478C350.801 128.478 349.685 128.712 348.353 129.378L348.893 130.476C349.739 130.044 350.675 129.63 351.611 129.63C353.627 129.63 354.131 131.07 354.131 132.33V132.672C353.177 132.366 352.115 132.15 351.107 132.15C349.109 132.15 347.453 133.392 347.453 135.246C347.453 137.082 348.893 138.216 350.855 138.216C352.079 138.216 353.465 137.64 354.131 136.542V138H355.481V132.33C355.481 130.08 354.239 128.478 351.701 128.478ZM351.089 137.028C349.775 137.028 348.767 136.344 348.767 135.192C348.767 134.076 349.937 133.284 351.323 133.284C352.331 133.284 353.285 133.428 354.131 133.662V135.084C353.771 136.398 352.313 137.028 351.089 137.028ZM361.27 138.216C363.196 138.216 364.672 137.118 364.672 135.408C364.672 133.644 363.124 133.14 361.63 132.672C359.902 132.114 359.218 131.862 359.218 131.052C359.218 130.152 360.082 129.684 361.126 129.684C361.954 129.684 362.872 129.972 363.808 130.566L364.456 129.522C363.466 128.874 362.278 128.478 361.126 128.478C359.272 128.478 357.868 129.522 357.868 131.214C357.868 132.546 358.732 133.212 360.982 133.86C362.242 134.22 363.322 134.544 363.322 135.552C363.322 136.434 362.494 137.01 361.27 137.01C360.244 137.01 359.182 136.614 358.12 135.84L357.418 136.83C358.534 137.73 359.974 138.216 361.27 138.216ZM377.048 128.478C375.572 128.478 374.42 129.378 374.132 130.692C373.664 129.342 372.512 128.478 371.036 128.478C369.812 128.478 368.804 129.09 368.336 130.062V128.694H366.986V138H368.336V132.078C368.336 130.674 369.38 129.684 370.856 129.684C372.116 129.684 372.998 130.746 372.998 132.258V138H374.348V132.078C374.348 130.674 375.392 129.684 376.868 129.684C378.128 129.684 379.01 130.746 379.01 132.258V138H380.36V132.078C380.36 129.972 378.992 128.478 377.048 128.478ZM391.442 138H392.828L396.284 127.47L399.722 138H401.108L405.338 125.634H403.754L400.334 135.642L397.058 125.634H395.492L392.216 135.642L388.796 125.634H387.212L391.442 138ZM411.447 138.216C414.075 138.216 416.235 136.02 416.235 133.338C416.235 130.656 414.075 128.478 411.447 128.478C408.801 128.478 406.641 130.656 406.641 133.338C406.641 136.02 408.801 138.216 411.447 138.216ZM411.447 137.01C409.575 137.01 408.045 135.354 408.045 133.338C408.045 131.322 409.575 129.684 411.447 129.684C413.301 129.684 414.831 131.322 414.831 133.338C414.831 135.354 413.301 137.01 411.447 137.01ZM419.91 130.512V128.694H418.56V138H419.91V132.798C419.91 130.98 421.404 129.684 423.51 129.684V128.478C421.8 128.478 420.468 129.27 419.91 130.512ZM425.697 138H427.047V135.534L428.721 133.878L431.943 138H433.635L429.675 132.96L433.869 128.694H432.141L427.047 133.842V125.418H425.697V138ZM439.5 137.01C437.664 137.01 436.386 135.678 436.188 133.86H443.802C443.802 130.602 442.2 128.478 439.392 128.478C436.89 128.478 434.802 130.548 434.802 133.32C434.802 136.182 437.034 138.216 439.518 138.216C440.814 138.216 442.452 137.658 443.262 136.776L442.434 135.894C441.858 136.524 440.598 137.01 439.5 137.01ZM439.446 129.684C441.3 129.684 442.29 130.98 442.47 132.654H436.206C436.458 130.854 437.79 129.684 439.446 129.684ZM447.42 130.512V128.694H446.07V138H447.42V132.798C447.42 130.98 448.914 129.684 451.02 129.684V128.478C449.31 128.478 447.978 129.27 447.42 130.512ZM462.304 138.198C465.184 138.198 466.66 136.596 466.66 134.634C466.66 132.456 464.968 131.61 462.61 131.052C460.504 130.548 459.28 130.098 459.28 128.82C459.28 127.686 460.396 126.696 461.926 126.696C463.222 126.696 464.446 127.29 465.472 128.28L466.336 127.182C465.202 126.138 463.834 125.418 461.998 125.418C459.622 125.418 457.858 126.948 457.858 128.928C457.858 131.07 459.424 131.844 461.908 132.42C464.068 132.924 465.238 133.446 465.238 134.76C465.238 135.876 464.266 136.92 462.358 136.92C460.63 136.92 459.352 136.182 458.308 135.138L457.426 136.236C458.668 137.46 460.27 138.198 462.304 138.198ZM473.109 137.01C471.273 137.01 469.995 135.678 469.797 133.86H477.411C477.411 130.602 475.809 128.478 473.001 128.478C470.499 128.478 468.411 130.548 468.411 133.32C468.411 136.182 470.643 138.216 473.127 138.216C474.423 138.216 476.061 137.658 476.871 136.776L476.043 135.894C475.467 136.524 474.207 137.01 473.109 137.01ZM473.055 129.684C474.909 129.684 475.899 130.98 476.079 132.654H469.815C470.067 130.854 471.399 129.684 473.055 129.684ZM481.029 130.512V128.694H479.679V138H481.029V132.798C481.029 130.98 482.523 129.684 484.629 129.684V128.478C482.919 128.478 481.587 129.27 481.029 130.512ZM489.39 138H490.686L494.592 128.694H493.08L490.038 136.416L486.942 128.694H485.43L489.39 138ZM500.267 137.01C498.431 137.01 497.153 135.678 496.955 133.86H504.569C504.569 130.602 502.967 128.478 500.159 128.478C497.657 128.478 495.569 130.548 495.569 133.32C495.569 136.182 497.801 138.216 500.285 138.216C501.581 138.216 503.219 137.658 504.029 136.776L503.201 135.894C502.625 136.524 501.365 137.01 500.267 137.01ZM500.213 129.684C502.067 129.684 503.057 130.98 503.237 132.654H496.973C497.225 130.854 498.557 129.684 500.213 129.684ZM508.187 130.512V128.694H506.837V138H508.187V132.798C508.187 130.98 509.681 129.684 511.787 129.684V128.478C510.077 128.478 508.745 129.27 508.187 130.512Z" fill="black"/>
<defs>
<filter id="filter0_f_1_2" x="51" y="183" width="242" height="76" filterUnits="userSpaceOnUse" color-interpolation-filters="sRGB">
<feFlood flood-opacity="0" result="BackgroundImageFix"/>
<feBlend mode="normal" in="SourceGraphic" in2="BackgroundImageFix" result="shape"/>
<feGaussianBlur stdDeviation="7.5" result="effect1_foregroundBlur_1_2"/>
</filter>
<filter id="filter1_f_1_2" x="299" y="183" width="242" height="76" filterUnits="userSpaceOnUse" color-interpolation-filters="sRGB">
<feFlood flood-opacity="0" result="BackgroundImageFix"/>
<feBlend mode="normal" in="SourceGraphic" in2="BackgroundImageFix" result="shape"/>
<feGaussianBlur stdDeviation="7.5" result="effect1_foregroundBlur_1_2"/>
</filter>
<filter id="filter2_f_1_2" x="547" y="183" width="242" height="76" filterUnits="userSpaceOnUse" color-interpolation-filters="sRGB">
<feFlood flood-opacity="0" result="BackgroundImageFix"/>
<feBlend mode="normal" in="SourceGraphic" in2="BackgroundImageFix" result="shape"/>
<feGaussianBlur stdDeviation="7.5" result="effect1_foregroundBlur_1_2"/>
</filter>
<filter id="filter3_f_1_2" x="51" y="94" width="738" height="76" filterUnits="userSpaceOnUse" color-interpolation-filters="sRGB">
<feFlood flood-opacity="0" result="BackgroundImageFix"/>
<feBlend mode="normal" in="SourceGraphic" in2="BackgroundImageFix" result="shape"/>
<feGaussianBlur stdDeviation="7.5" result="effect1_foregroundBlur_1_2"/>
</filter>
<linearGradient id="paint0_linear_1_2" x1="172" y1="198" x2="172" y2="244" gradientUnits="userSpaceOnUse">
<stop stop-color="#DEE7FF"/>
<stop offset="1" stop-color="#EFDEFF"/>
</linearGradient>
<linearGradient id="paint1_linear_1_2" x1="420" y1="198" x2="420" y2="244" gradientUnits="userSpaceOnUse">
<stop stop-color="#DEE7FF"/>
<stop offset="1" stop-color="#EFDEFF"/>
</linearGradient>
<linearGradient id="paint2_linear_1_2" x1="668" y1="198" x2="668" y2="244" gradientUnits="userSpaceOnUse">
<stop stop-color="#DEE7FF"/>
<stop offset="1" stop-color="#EFDEFF"/>
</linearGradient>
<linearGradient id="paint3_linear_1_2" x1="637.815" y1="231.637" x2="634.001" y2="224.923" gradientUnits="userSpaceOnUse">
<stop stop-color="#FB7655"/>
<stop offset="0.41" stop-color="#E42B1E"/>
<stop offset="0.99" stop-color="#990000"/>
<stop offset="1" stop-color="#990000"/>
</linearGradient>
<linearGradient id="paint4_linear_1_2" x1="639.706" y1="225.99" x2="634.804" y2="222.709" gradientUnits="userSpaceOnUse">
<stop stop-color="#871101"/>
<stop offset="0.99" stop-color="#911209"/>
<stop offset="1" stop-color="#911209"/>
</linearGradient>
<linearGradient id="paint5_linear_1_2" x1="635.791" y1="231.841" x2="630.889" y2="228.56" gradientUnits="userSpaceOnUse">
<stop stop-color="#871101"/>
<stop offset="0.99" stop-color="#911209"/>
<stop offset="1" stop-color="#911209"/>
</linearGradient>
<linearGradient id="paint6_linear_1_2" x1="625.516" y1="223.606" x2="626.279" y2="228.549" gradientUnits="userSpaceOnUse">
<stop stop-color="white"/>
<stop offset="0.23" stop-color="#E57252"/>
<stop offset="0.46" stop-color="#DE3B20"/>
<stop offset="0.99" stop-color="#A60003"/>
<stop offset="1" stop-color="#A60003"/>
</linearGradient>
<linearGradient id="paint7_linear_1_2" x1="635.364" y1="214.325" x2="636.206" y2="217.94" gradientUnits="userSpaceOnUse">
<stop stop-color="white"/>
<stop offset="0.18" stop-color="#E46342"/>
<stop offset="0.4" stop-color="#C82410"/>
<stop offset="0.99" stop-color="#A80D00"/>
<stop offset="1" stop-color="#A80D00"/>
</linearGradient>
<linearGradient id="paint8_linear_1_2" x1="632.809" y1="213.051" x2="636.419" y2="211.251" gradientUnits="userSpaceOnUse">
<stop stop-color="white"/>
<stop offset="0.54" stop-color="#C81F11"/>
<stop offset="0.99" stop-color="#BF0905"/>
<stop offset="1" stop-color="#BF0905"/>
</linearGradient>
<linearGradient id="paint9_linear_1_2" x1="622.355" y1="222.345" x2="622.653" y2="225.325" gradientUnits="userSpaceOnUse">
<stop stop-color="white"/>
<stop offset="0.31" stop-color="#DE4024"/>
<stop offset="0.99" stop-color="#BF190B"/>
<stop offset="1" stop-color="#BF190B"/>
</linearGradient>
<linearGradient id="paint10_linear_1_2" x1="630.734" y1="218.989" x2="631.015" y2="224.035" gradientUnits="userSpaceOnUse">
<stop stop-color="white"/>
<stop offset="0.23" stop-color="#E4714E"/>
<stop offset="0.56" stop-color="#BE1A0D"/>
<stop offset="0.99" stop-color="#A80D00"/>
<stop offset="1" stop-color="#A80D00"/>
</linearGradient>
<linearGradient id="paint11_linear_1_2" x1="620.314" y1="226.13" x2="634.306" y2="211.783" gradientUnits="userSpaceOnUse">
<stop stop-color="#BD0012"/>
<stop offset="0.07" stop-color="white"/>
<stop offset="0.17" stop-color="white"/>
<stop offset="0.27" stop-color="#C82F1C"/>
<stop offset="0.33" stop-color="#820C01"/>
<stop offset="0.46" stop-color="#A31601"/>
<stop offset="0.72" stop-color="#B31301"/>
<stop offset="0.99" stop-color="#E82609"/>
<stop offset="1" stop-color="#E82609"/>
</linearGradient>
<linearGradient id="paint12_linear_1_2" x1="631.001" y1="227.581" x2="626.797" y2="226.547" gradientUnits="userSpaceOnUse">
<stop stop-color="#8C0C01"/>
<stop offset="0.54" stop-color="#990C00"/>
<stop offset="0.99" stop-color="#A80D0E"/>
<stop offset="1" stop-color="#A80D0E"/>
</linearGradient>
<linearGradient id="paint13_linear_1_2" x1="638.219" y1="222.524" x2="634.476" y2="219.179" gradientUnits="userSpaceOnUse">
<stop stop-color="#7E110B"/>
<stop offset="0.99" stop-color="#9E0C00"/>
<stop offset="1" stop-color="#9E0C00"/>
</linearGradient>
<linearGradient id="paint14_linear_1_2" x1="639.59" y1="216.367" x2="637.725" y2="214.379" gradientUnits="userSpaceOnUse">
<stop stop-color="#79130D"/>
<stop offset="0.99" stop-color="#9E120B"/>
<stop offset="1" stop-color="#9E120B"/>
</linearGradient>
<radialGradient id="paint15_radial_1_2" cx="0" cy="0" r="1" gradientUnits="userSpaceOnUse" gradientTransform="translate(635.067 219.232) scale(4.57496 4.58769)">
<stop stop-color="#A80D00"/>
<stop offset="0.99" stop-color="#7E0E08"/>
<stop offset="1" stop-color="#7E0E08"/>
</radialGradient>
<radialGradient id="paint16_radial_1_2" cx="0" cy="0" r="1" gradientUnits="userSpaceOnUse" gradientTransform="translate(628.732 225.278) scale(6.08179 6.09873)">
<stop stop-color="#A30C00"/>
<stop offset="0.99" stop-color="#800E08"/>
<stop offset="1" stop-color="#800E08"/>
</radialGradient>
<linearGradient id="paint17_linear_1_2" x1="624.423" y1="229.978" x2="622.9" y2="224.824" gradientUnits="userSpaceOnUse">
<stop stop-color="#8B2114"/>
<stop offset="0.43" stop-color="#9E100A"/>
<stop offset="0.99" stop-color="#B3100C"/>
<stop offset="1" stop-color="#B3100C"/>
</linearGradient>
<linearGradient id="paint18_linear_1_2" x1="636.049" y1="212.893" x2="639.45" y2="214.39" gradientUnits="userSpaceOnUse">
<stop stop-color="#B31000"/>
<stop offset="0.44" stop-color="#910F08"/>
<stop offset="0.99" stop-color="#791C12"/>
<stop offset="1" stop-color="#791C12"/>
</linearGradient>
<linearGradient id="paint19_linear_1_2" x1="420" y1="109" x2="420" y2="155" gradientUnits="userSpaceOnUse">
<stop stop-color="#98B5FF"/>
<stop offset="1" stop-color="#CC61FF"/>
</linearGradient>
<clipPath id="clip0_1_2">
<rect width="18" height="18" fill="white" transform="translate(127 212)"/>
</clipPath>
<clipPath id="clip1_1_2">
<rect width="18" height="18" fill="white" transform="translate(353 212)"/>
</clipPath>
</defs>
</svg>
