<svg xmlns="http://www.w3.org/2000/svg" xmlns:xlink="http://www.w3.org/1999/xlink" height="90" width="340">

	<!-- zig-icon.svg -->
	<g fill="#f7a41d" transform="translate(10 6) scale(8.2)">
		<defs>
			<rect id="s" x="-1" y="-6" width="2" height="12" transform="rotate(42) skewY(-58)"/>
		</defs>
		<g id="z">
			<rect x="4" y="1" width="6" height="2"/>
			<use xlink:href="#s" transform="translate(7.5 5)"/>
			<rect x="5" y="7" width="6" height="2"/>
		</g>
		<mask id="m">
			<rect width="15" height="10" fill="#fff"/>
			<rect x="2" y="3" width="11" height="4" fill="#000"/>
			<use xlink:href="#z" stroke="#000"/>
		</mask>
		<rect y="1" width="15" height="8" mask="url(#m)"/>
	</g>

	<!-- ZIG letters -->
	<g fill="#737475" transform="translate(-35 0)">
		<defs>
			<clipPath id="a">
				<path d="M0 630h810V0H0v630z"/>
			</clipPath>
		</defs>
		<path d="M197.4 70.5l37-44.8h-35.9V16h50.2V24l-37 44.8h37v9.7h-51.3v-8.1zM276.5 16h11v62.6h-11V16z"/>
		<g clip-path="url(#a)" transform="matrix(1.25 0 0 -1.25 -313.8 440.2)">
			<path d="M529 288.4c-4 0-7.5.7-10.7 2A24.1 24.1 0 0 0 505 304a27.4 27.4 0 0 0-1.9 10.2v.1a26.3 26.3 0 0 0 7.3 18.3 25.7 25.7 0 0 0 18.6 7.7 35.2 35.2 0 0 0 11-1.8 25.2 25.2 0 0 0 8.3-5l-5.6-6.7a32 32 0 0 1-6 3.9 19.5 19.5 0 0 1-14.4 0 16.7 16.7 0 0 1-8.6-9.4c-.9-2.2-1.3-4.5-1.3-6.9v-.1c0-2.6.4-5 1.2-7.2a16.3 16.3 0 0 1 15.8-10.7 20.9 20.9 0 0 1 12 3.8v9.4h-12.7v7.7h21.3v-21a37.2 37.2 0 0 0-9-5.6 30.8 30.8 0 0 0-12-2.3"/>
		</g>
	</g>
</svg>
